# xmcd
#
# Track frame offsets: 
#        150
#        15874
#        34750
#        54722
#        71937
#        92929
#        123343
#        148977
#        167726
#
# Disc length: 2593 seconds
#
# Revision: 0
# Processed by: cddbd v1.5.2PL0 Copyright (c) Steve Scherf et al.
# Submitted via: ExactAudioCopy v1.0b1
#
DISCID=7f0a1f09
DTITLE=Peter Wolf and The J. Geils Band - You're Gettin' Even While I'm 
DTITLE=Gettin' Odd
DYEAR=1984
DGENRE=Blues
TTITLE0=Concealed Weapons
TTITLE1=Heavy Petting
TTITLE2=Wasted Youth
TTITLE3=Eenie Meenie Minie Moe
TTITLE4=Tell 'Em Jonesy
TTITLE5=You're Gettin' Even While I'm Gettin' Odd
TTITLE6=The Bite From Inside
TTITLE7=Californicatin'
TTITLE8=I Will Carry You Home
EXTD=
EXTT0=
EXTT1=
EXTT2=
EXTT3=
EXTT4=
EXTT5=
EXTT6=
EXTT7=
EXTT8=
PLAYORDER=
